<?xml version="1.0" encoding="utf-8"?>
<!-- Generator: Adobe Illustrator 25.0.0, SVG Export Plug-In . SVG Version: 6.00 Build 0)  -->
<svg version="1.1" id="Capa_1" xmlns:svgjs="http://svgjs.com/svgjs"
	 xmlns="http://www.w3.org/2000/svg" xmlns:xlink="http://www.w3.org/1999/xlink" x="0px" y="0px" viewBox="0 0 512 512"
	 style="enable-background:new 0 0 512 512;" xml:space="preserve">
<style type="text/css">
	.st0{fill:#2E243B;}
	.st1{fill:#5C233E;}
	.st2{fill:#803A5B;}
	.st3{fill:#EAA27F;}
	.st4{fill:#F6BA97;}
	.st5{fill:#26212C;}
	.st6{fill:#FFFFFF;}
	.st7{fill:#F7AE3B;}
	.st8{fill:#DD9710;}
</style>
<g>
	<path class="st0" d="M512,256c0,141.4-114.6,256-256,256C114.6,512,0,397.4,0,256C0,114.6,114.6,0,256,0C397.4,0,512,114.6,512,256
		z"/>
	<path class="st1" d="M382.1,449.6v29.2C344.9,499.9,301.9,512,256,512c-27,0-53.1-4.2-77.5-12c-17-5.4-33.3-12.6-48.6-21.2v-29.2
		c0-49.9,38.4-90.9,87.4-94.8c2.6-0.2,5.2-0.3,7.8-0.3h62c7.3,0,14.4,0.8,21.3,2.4C350.6,366.5,382.1,404.4,382.1,449.6z"/>
	<path class="st2" d="M382.1,449.6v29.2c-22.7,12.9-47.6,22.4-74,27.9c-14.8,3.1-30,4.8-45.6,5.2c-2.2,0.1-4.3,0.1-6.5,0.1
		c-27,0-53.1-4.2-77.5-12v-50.5c0-6.7,0.7-13.3,2-19.7c2.7-13,8.1-24.9,15.5-35.4c17.2-24.3,45.6-40.1,77.6-40.1H287
		C339.5,354.4,382.1,397,382.1,449.6z"/>
	<path class="st3" d="M289.9,317.8v41.7c0,15.3-10.1,28.1-23.9,32.4c-3.2,1-6.5,1.5-10,1.5c-18.7,0-33.9-15.2-33.9-33.9v-41.7H289.9
		z"/>
	<path class="st4" d="M289.9,356.8v2.6c0,15.3-10.1,28.1-23.9,32.4c-12.5-3.8-21.9-14.7-23.6-28c2.3,0.1,4.5,0.2,6.8,0.2
		c6.4,0,12.7-0.5,18.9-1.5C275.6,361.4,282.9,359.4,289.9,356.8z"/>
	<path class="st4" d="M162.9,249.5c0,15.7-11.5,28.7-26.5,31.2c-1.6,0.3-3.3,0.4-5.1,0.4c-17.4,0-31.6-14.1-31.6-31.6
		s14.1-31.6,31.6-31.6c1.7,0,3.4,0.1,5.1,0.4C151.4,220.8,162.9,233.8,162.9,249.5z"/>
	<path class="st3" d="M162.9,249.5c0,15.7-11.5,28.7-26.5,31.2c-2.7-9.9-4.2-20.4-4.2-31.2c0-10.8,1.5-21.2,4.2-31.2
		C151.4,220.8,162.9,233.8,162.9,249.5z"/>
	<path class="st3" d="M142.6,249.5c0,6.2-5.1,11.3-11.3,11.3s-11.3-5.1-11.3-11.3s5.1-11.3,11.3-11.3S142.6,243.3,142.6,249.5z"/>
	<path class="st4" d="M349.1,249.5c0,15.7,11.5,28.7,26.5,31.2c1.6,0.3,3.3,0.4,5.1,0.4c17.4,0,31.6-14.1,31.6-31.6
		S398.1,218,380.7,218c-1.7,0-3.4,0.1-5.1,0.4C360.6,220.8,349.1,233.8,349.1,249.5z"/>
	<g>
		<path class="st3" d="M349.1,249.5c0,15.7,11.5,28.7,26.5,31.2c2.7-9.9,4.2-20.4,4.2-31.2c0-10.8-1.5-21.2-4.2-31.2
			C360.6,220.8,349.1,233.8,349.1,249.5z"/>
		<path class="st3" d="M373.4,188v44.7c0,58.4-42.7,106.9-98.6,115.9c-0.2,0-0.4,0.1-0.6,0.1c-5.9,0.9-12.1,1.4-18.3,1.4
			c-64.9,0-117.4-52.6-117.4-117.4V188c0-13.7,2.3-26.8,6.6-39c16.1-45.7,59.6-78.5,110.8-78.5h0c6.2,0,12.3,0.5,18.3,1.4
			C330.5,80.8,373.4,129.4,373.4,188z"/>
		<path class="st3" d="M391.9,249.5c0,6.2-5.1,11.3-11.3,11.3s-11.3-5.1-11.3-11.3s5.1-11.3,11.3-11.3S391.9,243.3,391.9,249.5z"/>
	</g>
	<path class="st4" d="M373.4,188v44.7c0,58.4-42.7,106.9-98.6,115.9c-0.2,0-0.4,0.1-0.6,0.1c-56.2-8.8-99.1-57.4-99.1-116V188
		c0-58.6,43-107.2,99.2-116C330.5,80.8,373.4,129.4,373.4,188z"/>
	<path class="st3" d="M256,290.6c-9.8,0-19.7-2.5-28.6-7.4c-2.5-1.4-3.4-4.6-2.1-7.1c1.4-2.5,4.6-3.4,7.1-2.1
		c14.8,8.1,32.4,8.1,47.2,0c2.5-1.4,5.7-0.5,7.1,2.1c1.4,2.5,0.5,5.7-2.1,7.1C275.7,288.1,265.8,290.6,256,290.6z"/>
	<path class="st3" d="M269.3,259.5h-26.6c-3.2,0-5.7-2.6-5.7-5.7c0-3.2,2.6-5.7,5.7-5.7h26.6c3.2,0,5.7,2.6,5.7,5.7
		C275.1,256.9,272.5,259.5,269.3,259.5z"/>
	<path class="st5" d="M231,225.9c0,7.4-6,13.3-13.3,13.3s-13.3-6-13.3-13.3s6-13.3,13.3-13.3S231,218.6,231,225.9z"/>
	<path class="st5" d="M307.7,225.9c0,7.4-6,13.3-13.3,13.3s-13.3-6-13.3-13.3s6-13.3,13.3-13.3S307.7,218.6,307.7,225.9z"/>
	<path class="st6" d="M228.3,223.6c0,3.2-2.6,5.7-5.7,5.7s-5.7-2.6-5.7-5.7s2.6-5.7,5.7-5.7S228.3,220.4,228.3,223.6z"/>
	<path class="st6" d="M305.6,223.6c0,3.2-2.6,5.7-5.7,5.7c-3.2,0-5.7-2.6-5.7-5.7s2.6-5.7,5.7-5.7
		C303,217.9,305.6,220.4,305.6,223.6z"/>
	<path class="st7" d="M397.3,159c7,22.5-3,46.9-23.8,58.1c-13.5-41.8-43.3-64.5-69.6-76.8c-26.4-12.3-49.4-14.1-49.4-14.1
		c16.2,16.2,10.8,35.5,10.8,35.5c-17.2-11.2-32.9-16.4-45.6-18.6c-19.2-3.3-31.6,0.3-31.6,0.3l8.4,19.9c-33.4,0-60.1,39.4-60.1,39.4
		c-31.5-31.5-18.3-74.9-18.3-74.9l16.7,8.4c0,0-7.8-47.5,17.8-73.1l18.8,9.4c0,0,9.4-55.4,75.2-60.6v33.4c0,0,33.4-33.4,109.7-16.7
		l-26.1,30.3c0,0,54.3,4.2,72.1,62.7h-26.1C376.2,121.5,390,135.8,397.3,159z"/>
	<path class="st8" d="M356.3,28.5c-66.9,0-82,27.8-82,27.8l-27.7-11.1C246.6,45.2,280,11.8,356.3,28.5z"/>
	<path class="st8" d="M219.7,143.1c-19.2-3.3-31.6,0.3-31.6,0.3l8.4,19.9c-33.4,0-60.1,39.4-60.1,39.4
		c-31.5-31.5-18.3-74.9-18.3-74.9l16.7,8.4c0,0-7.8-47.5,17.8-73.1l18.8,9.4c0,0,9.4-55.4,75.2-60.6c-34.5,23-34.5,66.9-34.5,66.9
		l39.7-10.4C251.8,68.2,172.5,113,219.7,143.1z"/>
	<path class="st8" d="M136.4,202.7l2.5,38.5L152,228l-2.6-52.7"/>
	<path class="st7" d="M375.5,202.7l-2.5,38.5L359.9,228l2.6-52.7"/>
</g>
</svg>
