<?xml version="1.0" encoding="iso-8859-1"?>
<!-- Generator: Adobe Illustrator 19.0.0, SVG Export Plug-In . SVG Version: 6.00 Build 0)  -->
<svg version="1.1" id="Capa_1" xmlns="http://www.w3.org/2000/svg" xmlns:xlink="http://www.w3.org/1999/xlink" x="0px" y="0px"
	 viewBox="0 0 512 512" style="enable-background:new 0 0 512 512;" xml:space="preserve">
<g>
	<g>
		<path d="M462,0H50C22.43,0,0,22.43,0,50v412c0,27.57,22.43,50,50,50h412c27.57,0,50-22.43,50-50V50C512,22.43,489.57,0,462,0z
			 M492,462c0,16.542-13.458,30-30,30H50c-16.542,0-30-13.458-30-30V91.949C20.33,91.982,20.665,92,21.004,92H492V462z M492,72
			H21.004c-0.339,0-0.674,0.018-1.004,0.051V50c0-16.542,13.458-30,30-30h412c16.542,0,30,13.458,30,30V72z"/>
	</g>
</g>
<g>
	<g>
		<path d="M448,36H222.065c-5.522,0-10,4.478-10,10s4.478,10,10,10H448c5.522,0,10-4.478,10-10S453.522,36,448,36z"/>
	</g>
</g>
<g>
	<g>
		<path d="M111.069,38.93C109.21,37.069,106.63,36,104,36c-2.641,0-5.21,1.069-7.07,2.93S94,43.37,94,46s1.069,5.21,2.93,7.069
			C98.79,54.93,101.37,56,104,56s5.21-1.07,7.069-2.931C112.93,51.21,114,48.63,114,46S112.93,40.79,111.069,38.93z"/>
	</g>
</g>
<g>
	<g>
		<path d="M71.069,38.93C69.21,37.069,66.63,36,64,36s-5.21,1.069-7.07,2.93S54,43.37,54,46s1.069,5.21,2.93,7.069
			C58.79,54.93,61.37,56,64,56s5.21-1.07,7.069-2.931C72.93,51.21,74,48.63,74,46S72.93,40.79,71.069,38.93z"/>
	</g>
</g>
<g>
	<g>
		<path d="M151.069,38.93C149.21,37.069,146.63,36,144,36s-5.21,1.069-7.07,2.93S134,43.37,134,46s1.069,5.21,2.93,7.069
			C138.79,54.93,141.37,56,144,56s5.21-1.07,7.069-2.931C152.93,51.21,154,48.63,154,46S152.93,40.79,151.069,38.93z"/>
	</g>
</g>
<g>
	<g>
		<path d="M239.667,114H199c-5.522,0-10,4.478-10,10c0,5.522,4.478,10,10,10h40.667c3.492,0,6.333,2.841,6.333,6.333v77.945
			l-16.969-22.205c-5.203-6.809-13.423-10.557-21.966-9.993c-8.551,0.552-16.215,5.312-20.499,12.733l-31.569,54.678l-16.282-24.738
			c-3.9-5.925-10.464-9.521-17.557-9.62c-7.04-0.107-13.753,3.314-17.816,9.13L74,270.26V140.333c0-3.492,2.841-6.333,6.333-6.333
			H112c5.522,0,10-4.478,10-10c0-5.522-4.478-10-10-10H80.333C65.813,114,54,125.813,54,140.333v159.334
			C54,314.188,65.813,326,80.333,326h159.334C254.188,326,266,314.188,266,299.667V140.333C266,125.813,254.188,114,239.667,114z
			 M80.333,306c-2.091,0-3.942-1.023-5.097-2.589l44.5-63.692c0.103-0.146,0.41-0.587,1.12-0.587c0.009,0,0.017,0,0.024,0
			c0.728,0.011,1.028,0.468,1.128,0.618L165.613,306H80.333z M246,299.667c0,3.492-2.841,6.333-6.333,6.333h-50.109L167.3,272.183
			l36.587-63.37c1.346-2.331,3.572-2.717,4.467-2.774c0.895-0.062,3.15,0.037,4.786,2.178l30.664,40.126
			c0.637,0.834,1.381,1.538,2.196,2.111V299.667z"/>
	</g>
</g>
<g>
	<g>
		<path d="M167.069,116.93C165.21,115.07,162.63,114,160,114s-5.21,1.069-7.07,2.93S150,121.37,150,124s1.069,5.21,2.93,7.069
			c1.86,1.861,4.44,2.931,7.07,2.931s5.21-1.07,7.069-2.931C168.93,129.21,170,126.63,170,124S168.93,118.79,167.069,116.93z"/>
	</g>
</g>
<g>
	<g>
		<path d="M256,394H64c-5.522,0-10,4.478-10,10c0,5.522,4.478,10,10,10h192c5.522,0,10-4.478,10-10C266,398.478,261.522,394,256,394
			z"/>
	</g>
</g>
<g>
	<g>
		<path d="M256,354H64c-5.522,0-10,4.478-10,10c0,5.522,4.478,10,10,10h192c5.522,0,10-4.478,10-10C266,358.478,261.522,354,256,354
			z"/>
	</g>
</g>
<g>
	<g>
		<path d="M206.069,436.93C204.21,435.069,201.63,434,199,434s-5.21,1.069-7.07,2.93c-1.86,1.861-2.93,4.44-2.93,7.07
			s1.069,5.21,2.93,7.069c1.86,1.86,4.44,2.931,7.07,2.931s5.21-1.07,7.069-2.931C207.93,449.21,209,446.63,209,444
			S207.93,438.79,206.069,436.93z"/>
	</g>
</g>
<g>
	<g>
		<path d="M160,434H64c-5.522,0-10,4.478-10,10c0,5.522,4.478,10,10,10h96c5.522,0,10-4.478,10-10C170,438.478,165.522,434,160,434z
			"/>
	</g>
</g>
<g>
	<g>
		<path d="M436.333,114H327.667C315.72,114,306,123.72,306,135.667v108.666C306,256.28,315.72,266,327.667,266h108.666
			C448.28,266,458,256.28,458,244.333V135.667C458,123.72,448.28,114,436.333,114z M438,244.333c0,0.919-0.748,1.667-1.667,1.667
			H327.667c-0.919,0-1.667-0.748-1.667-1.667V135.667c0-0.919,0.748-1.667,1.667-1.667h108.666c0.919,0,1.667,0.748,1.667,1.667
			V244.333z"/>
	</g>
</g>
<g>
	<g>
		<path d="M436.333,306H327.667C315.72,306,306,315.72,306,327.667v108.666C306,448.28,315.72,458,327.667,458h108.666
			C448.28,458,458,448.28,458,436.333V327.667C458,315.72,448.28,306,436.333,306z M438,436.333c0,0.919-0.748,1.667-1.667,1.667
			H327.667c-0.919,0-1.667-0.748-1.667-1.667V327.667c0-0.919,0.748-1.667,1.667-1.667h108.666c0.919,0,1.667,0.748,1.667,1.667
			V436.333z"/>
	</g>
</g>
<g>
	<g>
		<path d="M405.34,366.244l-24.499-14.131c-5.696-3.287-12.497-3.284-18.191,0.005c-5.694,3.289-9.094,9.179-9.094,15.755v28.254
			c0,6.575,3.398,12.464,9.091,15.753c2.85,1.647,5.977,2.471,9.104,2.471c3.12,0,6.24-0.82,9.085-2.46h0.001l24.502-14.124
			c5.701-3.287,9.105-9.179,9.106-15.761C414.444,375.424,411.041,369.531,405.34,366.244z M373.556,393.002V371l19.079,11.004
			L373.556,393.002z"/>
	</g>
</g>
<g>
	<g>
		<path d="M405.34,174.244l-24.499-14.131c-5.696-3.286-12.497-3.285-18.191,0.005c-5.694,3.289-9.094,9.179-9.094,15.755v28.254
			c0,6.575,3.398,12.464,9.091,15.753c2.85,1.647,5.976,2.471,9.103,2.471c3.12,0,6.241-0.82,9.087-2.46l24.502-14.124
			c5.701-3.287,9.105-9.179,9.106-15.761C414.444,183.424,411.041,177.531,405.34,174.244z M373.556,201.002V179l19.079,11.004
			L373.556,201.002z"/>
	</g>
</g>
<g>
</g>
<g>
</g>
<g>
</g>
<g>
</g>
<g>
</g>
<g>
</g>
<g>
</g>
<g>
</g>
<g>
</g>
<g>
</g>
<g>
</g>
<g>
</g>
<g>
</g>
<g>
</g>
<g>
</g>
</svg>
