<?xml version="1.0" encoding="utf-8"?>
<!-- Generator: Adobe Illustrator 25.0.0, SVG Export Plug-In . SVG Version: 6.00 Build 0)  -->
<svg version="1.1" id="Capa_1" xmlns="http://www.w3.org/2000/svg" xmlns:xlink="http://www.w3.org/1999/xlink" x="0px" y="0px"
	 viewBox="0 0 512 512" style="enable-background:new 0 0 512 512;" xml:space="preserve">
<style type="text/css">
	.st0{fill:#FAFAFA;}
</style>
<g>
	<g>
		<path class="st0" d="M502.3,17L502.3,17c-0.9-3.6-3.7-6.4-7.3-7.3c-53.5-13.5-110-12.9-163.2,1.8C285,24.4,241.7,47.9,205.3,79.9
			l-8.7-2.7c-52-16.2-108.2-2.3-146.7,36.2l-47,47c-3.9,3.9-3.9,10.2,0,14.1L63.5,235L75,246.6L44.6,277c-3.9,3.9-3.9,10.2,0,14.1
			l27.2,27.2L39,402.2c-1.4,3.6-0.6,7.7,2,10.5c2.6,2.8,6.7,3.8,10.4,2.7l16.9-5.5L46.8,452c-2,3.9-1.2,8.6,1.8,11.6
			c3.1,3.1,7.8,3.8,11.6,1.8l42.1-21.5l-5.5,16.9c-1.2,3.7-0.2,7.7,2.7,10.4c1.9,1.8,4.4,2.7,6.9,2.7c1.2,0,2.5-0.2,3.6-0.7
			l83.9-32.8l27.1,27.1c2,2,4.5,2.9,7.1,2.9s5.1-1,7.1-2.9l30.4-30.4l11.4,11.4l60.5,60.5c1.9,1.9,4.4,2.9,7.1,2.9s5.2-1.1,7.1-2.9
			l47-47c38.5-38.5,52.4-94.7,36.2-146.7l-2.7-8.7c32-36.3,55.5-79.7,68.4-126.5C515.2,126.9,515.8,70.5,502.3,17z M70.5,213.8
			l-46.4-46.4L64,127.5c32.7-32.7,80.3-44.8,124.6-31.8L70.5,213.8z M122.4,446.9l6.4-19.8c1.2-3.9,0-8.1-3-10.7s-7.4-3.1-11-1.3
			l-36.1,18.5l18.4-36.1c1.8-3.6,1.3-8-1.3-11c-2.6-3.1-6.8-4.3-10.7-3l-19.8,6.4l21.9-56.1l91.2,91.2L122.4,446.9z M228.1,446.3
			l-24.6-24.6c0,0,0,0,0,0l-113-113c0,0,0,0-0.1-0.1L65.8,284l23.3-23.3L251.4,423L228.1,446.3z M384.5,448l-39.9,39.9l-46.4-46.4
			l118.1-118.1C429.3,367.7,417.2,415.2,384.5,448z M404.3,307.1L284.1,427.3L84.7,228l19.7-19.7l45.6,45.6c2,2,4.5,2.9,7.1,2.9
			s5.1-1,7.1-2.9c3.9-3.9,3.9-10.2,0-14.1l-45.6-45.6l86.4-86.4C277.7,35,384.2,4.6,484.3,27.7C507.4,127.7,477.1,234.3,404.3,307.1
			z"/>
	</g>
</g>
<g>
	<g>
		<path class="st0" d="M191,266.5c-1.9-1.9-4.4-2.9-7.1-2.9s-5.2,1.1-7.1,2.9c-1.9,1.9-2.9,4.4-2.9,7.1c0,2.6,1.1,5.2,2.9,7.1
			c1.9,1.9,4.4,2.9,7.1,2.9s5.2-1.1,7.1-2.9s2.9-4.4,2.9-7.1C193.9,270.9,192.9,268.4,191,266.5z"/>
	</g>
</g>
<g>
	<g>
		<path class="st0" d="M412.9,153.2c-2.4-5-8.4-7.1-13.3-4.7c-5,2.4-7.1,8.4-4.7,13.3c17.4,36.3,9.9,79.8-18.5,108.3
			c-37.1,37.1-97.4,37.1-134.5,0c-18-18-27.9-41.8-27.9-67.2c0-25.4,9.9-49.3,27.9-67.2c28.5-28.5,72.1-36,108.5-18.5
			c5,2.4,11,0.3,13.3-4.7c2.4-5,0.3-11-4.7-13.3C315,78,262.2,87,227.7,121.5C206,143.3,194,172.2,194,202.9
			c0,30.7,12,59.6,33.7,81.4c22.4,22.4,51.9,33.7,81.4,33.7c29.5,0,58.9-11.2,81.4-33.7C424.9,249.8,434,197.1,412.9,153.2z"/>
	</g>
</g>
<g>
	<g>
		<path class="st0" d="M390.7,121.8l-0.2-0.2c-3.9-3.9-10.2-3.9-14.1-0.1c-3.9,3.9-3.9,10.2-0.1,14.1l0.2,0.2c2,2,4.5,3,7.1,3
			c2.5,0,5.1-1,7-2.9C394.5,132,394.6,125.7,390.7,121.8z"/>
	</g>
</g>
<g>
	<g>
		<path class="st0" d="M294.7,142.5h-36c-5.5,0-10,4.5-10,10v36c0,5.5,4.5,10,10,10c5.5,0,10-4.5,10-10v-26h26c5.5,0,10-4.5,10-10
			C304.7,147,300.2,142.5,294.7,142.5z"/>
	</g>
</g>
<g>
	<g>
		<path class="st0" d="M359.5,207.3c-5.5,0-10,4.5-10,10v26h-26c-5.5,0-10,4.5-10,10s4.5,10,10,10h36c5.5,0,10-4.5,10-10v-36
			C369.5,211.8,365,207.3,359.5,207.3z"/>
	</g>
</g>
<g>
	<g>
		<path class="st0" d="M353.1,191.5c-1.4-5.3-6.8-8.6-12.2-7.2l-68.6,17.8c-5.3,1.4-8.6,6.8-7.2,12.2c1.2,4.5,5.2,7.5,9.7,7.5
			c0.8,0,1.7-0.1,2.5-0.3l68.6-17.8C351.3,202.3,354.5,196.9,353.1,191.5z"/>
	</g>
</g>
<g>
	<g>
		<path class="st0" d="M39.4,472.6c-3.9-3.9-10.2-3.9-14.1,0L2.9,494.9c-3.9,3.9-3.9,10.2,0,14.1c2,2,4.5,2.9,7.1,2.9s5.1-1,7.1-2.9
			l22.3-22.3C43.3,482.8,43.3,476.5,39.4,472.6z"/>
	</g>
</g>
<g>
	<g>
		<path class="st0" d="M87.4,478.6c-3.9-3.9-10.2-3.9-14.1,0l-16.3,16.3c-3.9,3.9-3.9,10.2,0,14.1c2,2,4.5,2.9,7.1,2.9
			c2.6,0,5.1-1,7.1-2.9l16.3-16.3C91.3,488.8,91.3,482.5,87.4,478.6z"/>
	</g>
</g>
<g>
	<g>
		<path class="st0" d="M36.2,424.8c-3.9-3.9-10.2-3.9-14.1,0L2.9,443.9c-3.9,3.9-3.9,10.2,0,14.1c2,2,4.5,2.9,7.1,2.9s5.1-1,7.1-2.9
			l19.2-19.2C40.2,435,40.2,428.7,36.2,424.8z"/>
	</g>
</g>
</svg>
