<?xml version="1.0" encoding="utf-8"?>
<!-- Generator: Adobe Illustrator 25.0.0, SVG Export Plug-In . SVG Version: 6.00 Build 0)  -->
<svg version="1.1" id="Capa_1" xmlns="http://www.w3.org/2000/svg" xmlns:xlink="http://www.w3.org/1999/xlink" x="0px" y="0px"
	 viewBox="0 0 512 512" style="enable-background:new 0 0 512 512;" xml:space="preserve">
<style type="text/css">
	.st0{fill:#FFA32A;}
</style>
<g>
	<g>
		<path class="st0" d="M462,76h-4V42c0-23.2-18.8-42-42-42s-42,18.8-42,42v34h-36.3c-5.5,0-10,4.5-10,10s4.5,10,10,10H374v22.7
			c0,5.5,4.5,10,10,10s10-4.5,10-10V75h44v171.1h-44V190c0-5.5-4.5-10-10-10s-10,4.5-10,10v66.1c0,1.8,0.5,3.5,1.4,5.1l23.1,39.1
			H201.7c-5.5,0-10,4.5-10,10s4.5,10,10,10H456c5.5,0,10-4.5,10-10s-4.5-10-10-10h-22.5l23.1-39.1c0.9-1.5,1.4-3.3,1.4-5.1V96h4
			c16.5,0,30,13.5,30,30v214H74v-73.9h200c18.7,0,34-15.3,34-34V34c0-18.7-15.3-34-34-34H34C15.3,0,0,15.3,0,34v198.1
			c0,18.7,15.3,34,34,34h20V378c0,27.6,22.4,50,50,50h129v24c-27.1,0.5-49,22.7-49,50c0,5.5,4.5,10,10,10h178c5.5,0,10-4.5,10-10
			c0-27.2-21.9-49.5-49-50v-24h129c27.6,0,50-22.4,50-50V126C512,98.4,489.6,76,462,76z M430.5,266.1L416,290.7l-14.5-24.5
			L430.5,266.1L430.5,266.1z M438,55h-44V42c0-12.1,9.9-22,22-22s22,9.9,22,22V55z M20,34c0-7.7,6.3-14,14-14h240
			c7.7,0,14,6.3,14,14v38H20V34z M34,246.1c-7.7,0-14-6.3-14-14V92h268v140.1c0,7.7-6.3,14-14,14H34z M360.3,492H205.7
			c4.1-11.6,15.3-20,28.3-20h98C345.1,472,356.2,480.4,360.3,492z M253,452v-24h60v24H253z M492,378c0,16.5-13.5,30-30,30H104
			c-16.5,0-30-13.5-30-30v-18h418V378z"/>
	</g>
</g>
<g>
	<g>
		<path class="st0" d="M256.1,36H163c-5.5,0-10,4.5-10,10s4.5,10,10,10h93.1c5.5,0,10-4.5,10-10S261.6,36,256.1,36z"/>
	</g>
</g>
<g>
	<g>
		<path class="st0" d="M86.3,38.9C84.4,37,81.9,36,79.2,36c-2.6,0-5.2,1.1-7.1,2.9c-1.9,1.9-2.9,4.4-2.9,7.1s1.1,5.2,2.9,7.1
			C74,55,76.5,56,79.2,56c2.6,0,5.2-1.1,7.1-2.9c1.9-1.9,2.9-4.4,2.9-7.1S88.1,40.8,86.3,38.9z"/>
	</g>
</g>
<g>
	<g>
		<path class="st0" d="M52.1,38.9C50.2,37,47.7,36,45,36s-5.2,1.1-7.1,2.9S35,43.3,35,46s1.1,5.2,2.9,7.1S42.3,56,45,56
			s5.2-1.1,7.1-2.9C54,51.2,55,48.7,55,46S54,40.8,52.1,38.9z"/>
	</g>
</g>
<g>
	<g>
		<path class="st0" d="M120.4,38.9c-1.9-1.9-4.4-2.9-7.1-2.9c-2.6,0-5.2,1.1-7.1,2.9c-1.9,1.9-2.9,4.4-2.9,7.1s1.1,5.2,2.9,7.1
			c1.9,1.9,4.4,2.9,7.1,2.9c2.6,0,5.2-1.1,7.1-2.9c1.9-1.9,2.9-4.4,2.9-7.1S122.3,40.8,120.4,38.9z"/>
	</g>
</g>
<g>
	<g>
		<path class="st0" d="M72.1,163l27.2-27.2c3.9-3.9,3.9-10.2,0-14.1s-10.2-3.9-14.1,0L50.9,156c-1.9,1.9-2.9,4.4-2.9,7.1
			s1.1,5.2,2.9,7.1l34.3,34.3c2,2,4.5,2.9,7.1,2.9s5.1-1,7.1-2.9c3.9-3.9,3.9-10.2,0-14.1L72.1,163z"/>
	</g>
</g>
<g>
	<g>
		<path class="st0" d="M257.1,156l-34.3-34.3c-3.9-3.9-10.2-3.9-14.1,0c-3.9,3.9-3.9,10.2,0,14.1l27.2,27.2l-27.2,27.2
			c-3.9,3.9-3.9,10.2,0,14.1c2,2,4.5,2.9,7.1,2.9s5.1-1,7.1-2.9l34.3-34.3c1.9-1.9,2.9-4.4,2.9-7.1S258.9,157.8,257.1,156z"/>
	</g>
</g>
<g>
	<g>
		<path class="st0" d="M183.3,113.2c-4.8-2.8-10.9-1.2-13.7,3.6l-48.4,82.3c-2.8,4.8-1.2,10.9,3.6,13.7c1.6,0.9,3.3,1.4,5.1,1.4
			c3.4,0,6.8-1.8,8.6-4.9l48.4-82.3C189.6,122.2,188,116,183.3,113.2z"/>
	</g>
</g>
<g>
	<g>
		<path class="st0" d="M391.1,147.6c-1.9-1.9-4.4-2.9-7.1-2.9s-5.2,1.1-7.1,2.9c-1.9,1.9-2.9,4.4-2.9,7.1c0,2.6,1.1,5.2,2.9,7.1
			s4.4,2.9,7.1,2.9s5.2-1.1,7.1-2.9c1.9-1.9,2.9-4.4,2.9-7.1S392.9,149.5,391.1,147.6z"/>
	</g>
</g>
<g>
	<g>
		<path class="st0" d="M157.4,300.3h-1.6c-5.5,0-10,4.5-10,10s4.5,10,10,10h1.6c5.5,0,10-4.5,10-10S162.9,300.3,157.4,300.3z"/>
	</g>
</g>
</svg>
