<?xml version="1.0" encoding="utf-8"?>
<!-- Generator: Adobe Illustrator 25.0.0, SVG Export Plug-In . SVG Version: 6.00 Build 0)  -->
<svg version="1.1" id="Capa_1" xmlns="http://www.w3.org/2000/svg" xmlns:xlink="http://www.w3.org/1999/xlink" x="0px" y="0px"
	 viewBox="0 0 512 512" style="enable-background:new 0 0 512 512;" xml:space="preserve">
<style type="text/css">
	.st0{fill:#FAFAFA;}
</style>
<g>
	<g>
		<path class="st0" d="M385.2,107.7l-17.9-4.5l-8.9-21.5l9.5-15.8c2.4-3.9,1.7-9-1.5-12.2L339,26.4c-3.2-3.2-8.3-3.9-12.2-1.5
			L311,34.4l-21.5-8.9L285,7.6c-1.1-4.5-5.1-7.6-9.7-7.6h-38.7c-4.6,0-8.6,3.1-9.7,7.6l-4.5,17.9L201,34.4l-15.8-9.5
			c-3.9-2.4-9-1.7-12.2,1.5l-27.4,27.4c-3.2,3.2-3.9,8.3-1.5,12.2l9.5,15.8l-8.9,21.5l-17.9,4.5c-4.5,1.1-7.6,5.1-7.6,9.7v38.7
			c0,4.6,3.1,8.6,7.6,9.7l17.9,4.5l8.9,21.5l-9.5,15.8c-2.4,3.9-1.7,9,1.5,12.2l27.4,27.4c3.2,3.2,8.3,3.9,12.2,1.5l15.8-9.5
			l21.5,8.9l4.5,17.9c1.1,4.5,5.1,7.6,9.7,7.6h38.7c4.6,0,8.6-3.1,9.7-7.6l4.5-17.9l21.5-8.9l15.8,9.5c3.9,2.4,9,1.7,12.2-1.5
			l27.4-27.4c3.2-3.2,3.9-8.3,1.5-12.2l-9.5-15.8l8.9-21.5l17.9-4.5c4.5-1.1,7.6-5.1,7.6-9.7v-38.7
			C392.7,112.8,389.6,108.8,385.2,107.7z M372.7,148.3l-15.2,3.8c-3.1,0.8-5.6,2.9-6.8,5.9L338,188.7c-1.2,2.9-1,6.3,0.7,9l8.1,13.4
			l-16.3,16.3l-13.4-8.1c-2.7-1.6-6-1.9-9-0.7l-30.8,12.8c-2.9,1.2-5.1,3.7-5.9,6.8l-3.8,15.2h-23l-3.8-15.2
			c-0.8-3.1-2.9-5.6-5.9-6.8L204,218.7c-2.9-1.2-6.3-1-9,0.7l-13.4,8.1l-16.3-16.3l8.1-13.4c1.6-2.7,1.9-6.1,0.7-9l-12.8-30.8
			c-1.2-2.9-3.7-5.1-6.8-5.9l-15.2-3.8v-23h0l15.2-3.8c3.1-0.8,5.6-2.9,6.8-5.9L174,84.8c1.2-2.9,1-6.3-0.7-9l-8.1-13.4l16.3-16.3
			l13.4,8.1c2.7,1.6,6.1,1.9,9,0.7L234.8,42c2.9-1.2,5.1-3.7,5.9-6.8l3.8-15.2h23l3.8,15.2c0.8,3.1,2.9,5.6,5.9,6.8L308,54.8
			c2.9,1.2,6.3,1,9-0.7l13.4-8.1l16.3,16.3l-8.1,13.4c-1.6,2.7-1.9,6.1-0.7,9l12.8,30.8c1.2,2.9,3.7,5.1,6.8,5.9l15.2,3.8
			L372.7,148.3L372.7,148.3z"/>
	</g>
</g>
<g>
	<g>
		<path class="st0" d="M512,300.1c-0.5-10.8-5.6-21.1-14-28c-15.5-13-38.7-11.9-52.9,2.5L358.5,362c-3.2,3.2-7,5.6-11.3,7
			c2-4,3.3-8.5,3.7-13.2c1.9-19-10.2-36.3-28.7-41L264.5,300c-36.8-9.5-75-7.2-110.4,6.6L85.9,333l-10.7-18.5
			c-2.8-4.8-8.9-6.4-13.7-3.7L5,343.5c-2.3,1.3-4,3.5-4.7,6.1c-0.7,2.6-0.3,5.3,1,7.6l27.4,47.5c2.8,4.8,8.9,6.4,13.7,3.7
			s6.4-8.9,3.7-13.7l-22.4-38.8l39.3-22.6l76.5,132.5l-39.3,22.6l-19.4-33.6c-2.8-4.8-8.9-6.4-13.7-3.7c-4.8,2.8-6.4,8.9-3.7,13.7
			L87.8,507c1.9,3.2,5.2,5,8.7,5c1.7,0,3.4-0.4,5-1.3l56.6-32.6c2.3-1.3,4-3.5,4.7-6.1c0.4-1.3,0.4-2.7,0.2-4h28.5
			c5.5,0,10-4.5,10-10s-4.5-10-10-10h-39.2L96,350.6l65.3-25.4c31.5-12.2,65.5-14.3,98.2-5.9l57.8,14.8c8.9,2.3,14.7,10.6,13.7,19.7
			c-0.9,9.5-8.8,16.6-18.3,16.6h-76.1c-5.5,0-10,4.5-10,10c0,5.5,4.5,10,10,10l24.6,0.1h77c12.9,0,25.5-5.3,34.5-14.4l86.6-87.5
			c6.9-7,18.3-7.5,25.9-1.2c4.1,3.5,6.6,8.3,6.8,13.7s-1.6,10.5-5.4,14.3l-95.4,97.9c-21.5,22-51.5,34.7-82.3,34.7H262
			c-5.5,0-10,4.5-10,10s4.5,10,10,10h46.8c36.2,0,71.4-14.8,96.6-40.7l95.4-97.9C508.5,321.6,512.5,311,512,300.1z"/>
	</g>
</g>
<g>
	<g>
		<path class="st0" d="M232.6,450.9c-1.9-1.9-4.4-2.9-7.1-2.9s-5.2,1.1-7.1,2.9c-1.9,1.9-2.9,4.4-2.9,7.1s1.1,5.2,2.9,7.1
			c1.9,1.9,4.4,2.9,7.1,2.9s5.2-1.1,7.1-2.9c1.9-1.9,2.9-4.4,2.9-7.1S234.4,452.8,232.6,450.9z"/>
	</g>
</g>
<g>
	<g>
		<path class="st0" d="M61.8,422.6c-1.9-1.9-4.4-2.9-7.1-2.9c-2.6,0-5.2,1.1-7.1,2.9c-1.9,1.9-2.9,4.4-2.9,7.1
			c0,2.6,1.1,5.2,2.9,7.1c1.9,1.9,4.4,2.9,7.1,2.9s5.2-1.1,7.1-2.9c1.9-1.9,2.9-4.4,2.9-7.1C64.7,427,63.7,424.5,61.8,422.6z"/>
	</g>
</g>
<g>
	<g>
		<path class="st0" d="M198.9,136.8l18.4-18.4c3.9-3.9,3.9-10.2,0-14.1c-3.9-3.9-10.2-3.9-14.1,0l-25.4,25.4
			c-3.9,3.9-3.9,10.2,0,14.1l25.4,25.4c2,2,4.5,2.9,7.1,2.9s5.1-1,7.1-2.9c3.9-3.9,3.9-10.2,0-14.1L198.9,136.8z"/>
	</g>
</g>
<g>
	<g>
		<path class="st0" d="M334.3,129.7l-25.4-25.4c-3.9-3.9-10.2-3.9-14.1,0c-3.9,3.9-3.9,10.2,0,14.1l18.4,18.4l-18.4,18.4
			c-3.9,3.9-3.9,10.2,0,14.1c2,2,4.5,2.9,7.1,2.9s5.1-1,7.1-2.9l25.4-25.4C338.2,139.9,338.2,133.6,334.3,129.7z"/>
	</g>
</g>
<g>
	<g>
		<path class="st0" d="M279,97.6c-4.8-2.8-10.9-1.2-13.7,3.6l-35.9,61.1c-2.8,4.8-1.2,10.9,3.6,13.7c1.6,0.9,3.3,1.4,5.1,1.4
			c3.4,0,6.8-1.8,8.6-4.9l35.9-61.1C285.4,106.5,283.8,100.4,279,97.6z"/>
	</g>
</g>
</svg>
